<svg xmlns="http://www.w3.org/2000/svg" version="1.1" xmlns:xlink="http://www.w3.org/1999/xlink" xmlns:svgjs="http://svgjs.dev/svgjs" width="1440" height="560" preserveAspectRatio="none" viewBox="0 0 1440 560"><g mask="url(&quot;#SvgjsMask1000&quot;)" fill="none"><rect width="1440" height="560" x="0" y="0" fill="#0e2a47"></rect><path d="M0,412.876C87.41,414.413,184.289,448.41,256.601,399.279C328.812,350.216,333.636,248.032,363.409,165.964C390.64,90.902,417.475,18.722,423.544,-60.896C431.011,-158.856,459.02,-268.435,402.655,-348.902C345.875,-429.961,236.213,-459.488,137.701,-468.967C48.197,-477.579,-31.63,-426.746,-117.133,-398.919C-199.735,-372.036,-288.298,-362.96,-355.845,-308.342C-431.172,-247.433,-497.349,-169.097,-518.32,-74.523C-539.956,23.05,-521.854,128.933,-472.015,215.562C-424.19,298.691,-339.352,353.369,-250.868,390.358C-171.804,423.409,-85.681,411.37,0,412.876" fill="#0b2239"></path><path d="M1440 1098.694C1563.362 1110.505 1701.291 1195.673 1803.277 1125.27 1905.91 1054.42 1862.02 889.741 1909.651 774.482 1954.788 665.2570000000001 2091.945 585.662 2074.58 468.76099999999997 2057.205 351.786 1919.519 298.645 1827.8690000000001 223.91000000000003 1751.721 161.81599999999997 1674.667 107.238 1584.203 68.89100000000002 1483.25 26.097999999999956 1381.574-18.607999999999947 1272.147-11.654999999999973 1146.114-3.647000000000048 991.6949999999999 5.796000000000049 921.803 110.97899999999998 850.707 217.974 923.074 360.78499999999997 940.057 488.119 952.544 581.74 979.81 667.143 1008.0029999999999 757.287 1040.717 861.884 1032.854 991.787 1118.837 1059.739 1205.193 1127.9859999999999 1330.433 1088.204 1440 1098.694" fill="#113255"></path></g><defs><mask id="SvgjsMask1000"><rect width="1440" height="560" fill="#ffffff"></rect></mask></defs></svg>